# xmcd
#
# Track frame offsets:
#	182
#	14490
#	25245
#	38530
#	51302
#	62270
#	75660
#	89412
#	101590
#	117877
#	132610
#	143950
#	153317
#	162475
#	172895
#	182610
#	194365
#	208195
#	222192
#	235070
#
# Disc length: 3264 seconds
#
# Revision: 0
# Processed by: cddbd v1.5.1PL2 Copyright (c) Steve Scherf et al.
# Submitted via: audiograbber 1.83.01
#
DISCID=110cbe14
DTITLE=Various Artist - Chicago Piano 1951-58
DYEAR=1990
DGENRE=Blues
TTITLE0=Sunnyland Slim - Highway 61
TTITLE1=Sunnyland Slim - It's You Baby
TTITLE2=Sunnyland Slim - Over Night
TTITLE3=Sunnyland Slim - That Woman
TTITLE4=Sunnyland Slim - 'Fore Day Bounce
TTITLE5=Floyd Jones - Big World
TTITLE6=Sunnyland Slim - Mary Lee
TTITLE7=Eddie Boyd - Five Long Years
TTITLE8=Eddie Boyd - Hard Headed Woman
TTITLE9=Eddie Boyd - It's Miserable To Be Alone
TTITLE10=Charles Clark - Row Your Boat
TTITLE11=Memphis Slim - I Wonder What's The Matter
TTITLE12=Memphis Slim - I Can't Live Without You
TTITLE13=Memphis Slim - Best Gal I Ever Had
TTITLE14=Memphis Slim - So Tired
TTITLE15=Shakey Horton - Need My Baby
TTITLE16=Little Brother Montgomery - Keep Drinkin'
TTITLE17=Little Brother Montgomery - Boogie
TTITLE18=Moody Jones - Please Somebody
TTITLE19=J T Brown - Short Dresses
EXTD=
EXTT0=
EXTT1=
EXTT2=
EXTT3=
EXTT4=
EXTT5=
EXTT6=
EXTT7=
EXTT8=
EXTT9=
EXTT10=
EXTT11=
EXTT12=
EXTT13=
EXTT14=
EXTT15=
EXTT16=
EXTT17=
EXTT18=
EXTT19=
PLAYORDER=
